<svg width="53" height="77" viewBox="0 0 53 77" fill="none" xmlns="http://www.w3.org/2000/svg">
<g clip-path="url(#clip0_42_278)">
<mask id="path-1-outside-1_42_278" maskUnits="userSpaceOnUse" x="-2.00003" y="-4" width="54" height="83" fill="black">
<rect fill="white" x="-2.00003" y="-4" width="54" height="83"/>
<path d="M42.112 70.256L3.83998 42.864L3.83998 32.496L42.112 5.36001L46.336 25.456L29.056 37.616L46.336 49.904L42.112 70.256Z"/>
</mask>
<path d="M42.112 70.256L39.2019 74.3219L45.447 78.7916L47.0076 71.2721L42.112 70.256ZM3.83998 42.864L-1.16002 42.864L-1.16003 45.4341L0.929926 46.9299L3.83998 42.864ZM3.83998 32.496L0.947999 28.4172L-1.16002 29.9119L-1.16002 32.496L3.83998 32.496ZM42.112 5.36001L47.0051 4.33153L45.4373 -3.12705L39.22 1.28123L42.112 5.36001ZM46.336 25.456L49.2134 29.545L51.9064 27.65L51.2291 24.4275L46.336 25.456ZM29.056 37.616L26.1785 33.527L20.3982 37.5946L26.1584 41.6908L29.056 37.616ZM46.336 49.904L51.2316 50.9201L51.8954 47.7221L49.2336 45.8292L46.336 49.904ZM45.022 66.1901L6.75002 38.7981L0.929926 46.9299L39.2019 74.3219L45.022 66.1901ZM8.83998 42.864L8.83998 32.496L-1.16002 32.496L-1.16002 42.864L8.83998 42.864ZM6.73195 36.5748L45.004 9.43879L39.22 1.28123L0.947999 28.4172L6.73195 36.5748ZM37.2189 6.38849L41.4429 26.4845L51.2291 24.4275L47.0051 4.33153L37.2189 6.38849ZM43.4585 21.367L26.1785 33.527L31.9334 41.705L49.2134 29.545L43.4585 21.367ZM26.1584 41.6908L43.4384 53.9788L49.2336 45.8292L31.9536 33.5412L26.1584 41.6908ZM41.4403 48.8879L37.2163 69.2399L47.0076 71.2721L51.2316 50.9201L41.4403 48.8879Z" fill="white" mask="url(#path-1-outside-1_42_278)"/>
</g>
<defs>
<clipPath id="clip0_42_278">
<rect width="53" height="77" fill="white"/>
</clipPath>
</defs>
</svg>
