<svg width="93" height="93" viewBox="0 0 93 93" fill="none" xmlns="http://www.w3.org/2000/svg">
<g clip-path="url(#clip0_41_80)">
<circle cx="46.5" cy="46.5" r="46.5" fill="white"/>
<mask id="path-2-outside-1_41_80" maskUnits="userSpaceOnUse" x="7" y="16" width="76" height="50" fill="black">
<rect fill="white" x="7" y="16" width="76" height="50"/>
<path d="M12.744 58.112L40.136 19.84L50.504 19.84L77.64 58.112L57.544 62.336L45.384 45.056L33.096 62.336L12.744 58.112Z"/>
</mask>
<path d="M12.744 58.112L40.136 19.84L50.504 19.84L77.64 58.112L57.544 62.336L45.384 45.056L33.096 62.336L12.744 58.112Z" fill="white"/>
<path d="M12.744 58.112L10.3045 56.366L7.62263 60.113L12.1343 61.0494L12.744 58.112ZM40.136 19.84L40.136 16.84L38.5939 16.84L37.6965 18.094L40.136 19.84ZM50.504 19.84L52.9513 18.1048L52.0545 16.84L50.504 16.84L50.504 19.84ZM77.64 58.112L78.2571 61.0478L82.7322 60.1072L80.0873 56.3768L77.64 58.112ZM57.544 62.336L55.0906 64.0625L56.2276 65.6782L58.1611 65.2718L57.544 62.336ZM45.384 45.056L47.8374 43.3295L45.3968 39.8613L42.9391 43.3174L45.384 45.056ZM33.096 62.336L32.4863 65.2734L34.4052 65.6716L35.5409 64.0746L33.096 62.336ZM15.1835 59.858L42.5755 21.586L37.6965 18.094L10.3045 56.366L15.1835 59.858ZM40.136 22.84L50.504 22.84L50.504 16.84L40.136 16.84L40.136 22.84ZM48.0567 21.5752L75.1927 59.8472L80.0873 56.3768L52.9513 18.1048L48.0567 21.5752ZM77.0229 55.1762L56.9269 59.4001L58.1611 65.2718L78.2571 61.0478L77.0229 55.1762ZM59.9974 60.6095L47.8374 43.3295L42.9306 46.7825L55.0906 64.0625L59.9974 60.6095ZM42.9391 43.3174L30.6511 60.5974L35.5409 64.0746L47.8289 46.7946L42.9391 43.3174ZM33.7056 59.3986L13.3536 55.1746L12.1343 61.0494L32.4863 65.2734L33.7056 59.3986Z" fill="black" mask="url(#path-2-outside-1_41_80)"/>
</g>
<defs>
<clipPath id="clip0_41_80">
<rect width="93" height="93" fill="white"/>
</clipPath>
</defs>
</svg>
